0
SECTION
2
HEADER
9
$ACADVER
1
AC1015
9
$INSUNITS
70
4
9
$HANDSEED
5
4FD
0
ENDSEC
0
SECTION
2
TABLES
0
TABLE
2
LAYER
5
11A
100
AcDbSymbolTable
70
5
0
LAYER
5
115
100
AcDbSymbolTableRecord
100
AcDbLayerTableRecord
2
walls
70
0
62
7
6
CONTINUOUS
0
LAYER
5
116
100
AcDbSymbolTableRecord
100
AcDbLayerTableRecord
2
openings
70
0
62
3
6
CONTINUOUS
0
LAYER
5
117
100
AcDbSymbolTableRecord
100
AcDbLayerTableRecord
2
fixtures
70
0
62
30
6
CONTINUOUS
0
LAYER
5
118
100
AcDbSymbolTableRecord
100
AcDbLayerTableRecord
2
dimensions
70
0
62
5
6
CONTINUOUS
0
LAYER
5
119
100
AcDbSymbolTableRecord
100
AcDbLayerTableRecord
2
labels
70
0
62
7
6
CONTINUOUS
0
ENDTAB
0
ENDSEC
0
SECTION
2
ENTITIES
0
LWPOLYLINE
5
100
100
AcDbEntity
8
walls
100
AcDbPolyline
90
4
70
1
10
0
20
0
10
4000
20
0
10
4200
20
200
10
-200
20
200
0
LWPOLYLINE
5
101
100
AcDbEntity
8
walls
100
AcDbPolyline
90
4
70
1
10
4000
20
0
10
4000
20
-3000
10
4200
20
-3200
10
4200
20
200
0
LWPOLYLINE
5
102
100
AcDbEntity
8
walls
100
AcDbPolyline
90
4
70
1
10
4000
20
-3000
10
0
20
-3000
10
-200
20
-3200
10
4200
20
-3200
0
LWPOLYLINE
5
103
100
AcDbEntity
8
walls
100
AcDbPolyline
90
4
70
1
10
0
20
-3000
10
0
20
0
10
-200
20
200
10
-200
20
-3200
0
TEXT
5
104
100
AcDbEntity
8
labels
100
AcDbText
10
2000
20
-1500
30
0
40
120
1
A
72
1
11
2000
21
-1500
31
0
100
AcDbText
0
LINE
5
105
100
AcDbEntity
8
dimensions
100
AcDbLine
10
0
20
500
30
0
11
4000
21
500
31
0
0
LINE
5
106
100
AcDbEntity
8
dimensions
100
AcDbLine
10
0
20
450
30
0
11
0
21
550
31
0
0
LINE
5
107
100
AcDbEntity
8
dimensions
100
AcDbLine
10
4000
20
450
30
0
11
4000
21
550
31
0
0
TEXT
5
108
100
AcDbEntity
8
dimensions
100
AcDbText
10
2000
20
560
30
0
40
120
1
4000
72
1
11
2000
21
560
31
0
100
AcDbText
0
LINE
5
109
100
AcDbEntity
8
dimensions
100
AcDbLine
10
4500
20
0
30
0
11
4500
21
-3000
31
0
0
LINE
5
10A
100
AcDbEntity
8
dimensions
100
AcDbLine
10
4450
20
0
30
0
11
4550
21
0
31
0
0
LINE
5
10B
100
AcDbEntity
8
dimensions
100
AcDbLine
10
4450
20
-3000
30
0
11
4550
21
-3000
31
0
0
TEXT
5
10C
100
AcDbEntity
8
dimensions
100
AcDbText
10
4560
20
-1500
30
0
40
120
1
3000
72
1
11
4560
21
-1500
31
0
100
AcDbText
0
LINE
5
10D
100
AcDbEntity
8
dimensions
100
AcDbLine
10
4000
20
-3500
30
0
11
0
21
-3500
31
0
0
LINE
5
10E
100
AcDbEntity
8
dimensions
100
AcDbLine
10
4000
20
-3450
30
0
11
4000
21
-3550
31
0
0
LINE
5
10F
100
AcDbEntity
8
dimensions
100
AcDbLine
10
0
20
-3450
30
0
11
0
21
-3550
31
0
0
TEXT
5
110
100
AcDbEntity
8
dimensions
100
AcDbText
10
2000
20
-3560
30
0
40
120
1
4000
72
1
11
2000
21
-3560
31
0
100
AcDbText
0
LINE
5
111
100
AcDbEntity
8
dimensions
100
AcDbLine
10
-500
20
-3000
30
0
11
-500
21
0
31
0
0
LINE
5
112
100
AcDbEntity
8
dimensions
100
AcDbLine
10
-450
20
-3000
30
0
11
-550
21
-3000
31
0
0
LINE
5
113
100
AcDbEntity
8
dimensions
100
AcDbLine
10
-450
20
0
30
0
11
-550
21
0
31
0
0
TEXT
5
114
100
AcDbEntity
8
dimensions
100
AcDbText
10
-560
20
-1500
30
0
40
120
1
3000
72
1
11
-560
21
-1500
31
0
100
AcDbText
0
ENDSEC
0
EOF
